HIERARCHY
ROOT Hips
{
 OFFSET 0.000000 0.000000 0.000000
 CHANNELS 6 Xposition Yposition Zposition Yrotation Xrotation Zrotation
 JOINT Chest
 {
  OFFSET 0.000000 9.585900 0.002600
  CHANNELS 3 Yrotation Xrotation Zrotation
  JOINT Chest2
  {
   OFFSET 0.000000 9.601200 -0.005300
   CHANNELS 3 Yrotation Xrotation Zrotation
   JOINT Chest3
   {
    OFFSET 0.000000 9.561800 0.000000
    CHANNELS 3 Yrotation Xrotation Zrotation
    JOINT Chest4
    {
     OFFSET 0.000000 9.552100 0.000000
     CHANNELS 3 Yrotation Xrotation Zrotation
     JOINT Neck
     {
      OFFSET 0.000000 14.453000 0.000000
      CHANNELS 3 Yrotation Xrotation Zrotation
      JOINT Head
      {
       OFFSET 0.000000 8.936500 -0.011300
       CHANNELS 3 Yrotation Xrotation Zrotation
       End Site
       {
        OFFSET 0.000000 17.073600 -0.006000
       }
      }
     }
     JOINT RightCollar
     {
      OFFSET -2.921100 9.558500 0.000000
      CHANNELS 3 Yrotation Xrotation Zrotation
      JOINT RightShoulder
      {
       OFFSET -13.519700 0.000000 0.000000
       CHANNELS 3 Yrotation Xrotation Zrotation
       JOINT RightElbow
       {
        OFFSET 0.000000 -29.696600 0.000000
        CHANNELS 3 Yrotation Xrotation Zrotation
        JOINT RightWrist
        {
         OFFSET 0.000000 -24.004700 0.000000
         CHANNELS 3 Yrotation Xrotation Zrotation
         End Site
         {
          OFFSET 0.000000 -17.728500 0.000000
         }
        }
       }
      }
     }
     JOINT LeftCollar
     {
      OFFSET 2.921100 9.558500 0.000000
      CHANNELS 3 Yrotation Xrotation Zrotation
      JOINT LeftShoulder
      {
       OFFSET 13.519700 0.000000 0.000000
       CHANNELS 3 Yrotation Xrotation Zrotation
       JOINT LeftElbow
       {
        OFFSET 0.000000 -29.696600 0.000000
        CHANNELS 3 Yrotation Xrotation Zrotation
        JOINT LeftWrist
        {
         OFFSET 0.000000 -24.004700 0.000000
         CHANNELS 3 Yrotation Xrotation Zrotation
         End Site
         {
          OFFSET 0.000000 -17.728500 0.000000
         }
        }
       }
      }
     }
    }
   }
  }
 }
 JOINT RightHip
 {
  OFFSET -7.771700 -0.012900 -0.001300
  CHANNELS 3 Yrotation Xrotation Zrotation
  JOINT RightKnee
  {
   OFFSET 0.000000 -40.869800 0.001200
   CHANNELS 3 Yrotation Xrotation Zrotation
   JOINT RightAnkle
   {
    OFFSET 0.000000 -39.717900 0.002100
    CHANNELS 3 Yrotation Xrotation Zrotation
    JOINT RightToe
    {
     OFFSET 0.000000 -4.965400 11.033500
     CHANNELS 3 Yrotation Xrotation Zrotation
     End Site
     {
      OFFSET 0.000000 -1.423100 5.872300
     }
    }
   }
  }
 }
 JOINT LeftHip
 {
  OFFSET 7.771700 -0.012900 -0.001300
  CHANNELS 3 Yrotation Xrotation Zrotation
  JOINT LeftKnee
  {
   OFFSET 0.000000 -40.869800 0.001200
   CHANNELS 3 Yrotation Xrotation Zrotation
   JOINT LeftAnkle
   {
    OFFSET 0.000000 -39.717900 0.002100
    CHANNELS 3 Yrotation Xrotation Zrotation
    JOINT LeftToe
    {
     OFFSET 0.000000 -4.965400 11.033500
     CHANNELS 3 Yrotation Xrotation Zrotation
     End Site
     {
      OFFSET 0.000000 -1.423100 5.872300
     }
    }
   }
  }
 }
}
MOTION
Frames: 8
Frame Time: 0.008333
0.000000 85.388000 0.000000 0.000000 -5.767877 0.000000 0.000000 11.653817 0.000000 0.000000 -5.885947 0.000000 0.000000 -0.000000 0.000000 0.000000 -0.000000 0.000000 0.000000 12.528835 0.000000 0.000000 0.711642 0.000000 0.000000 -0.000000 0.000000 0.000000 0.000000 -90.000000 0.000000 -2.309062 0.000000 0.000000 2.309062 0.000000 0.000000 -0.000000 0.000000 0.000000 -0.000000 90.000000 0.000000 -2.309062 0.000000 0.000000 2.309062 0.000000 0.000000 8.520406 0.000000 0.000000 1.905762 0.000000 -0.000000 -4.658285 0.000000 0.000000 -0.000000 0.000000 0.000000 8.520406 0.000000 0.000000 1.905762 0.000000 -0.000000 -4.658285 0.000000 0.000000 -0.000000 0.000000
-37.053990 55.253293 0.068008 -176.843781 -18.353202 -1.430469 0.382104 16.691052 0.088804 0.042104 1.705792 0.024163 0.064382 2.843290 0.032565 0.344491 14.718224 0.200195 0.197475 17.542102 0.492550 0.100098 -7.286789 0.473009 0.296142 0.852853 1.928879 3.170048 -7.611172 -8.059073 -68.216205 -46.614059 105.789393 -20.944265 -3.559903 0.071639 -5.414797 -1.490649 2.886527 3.027050 -10.673425 6.707507 57.479642 -47.372887 -101.598888 11.302501 -17.721774 10.698631 0.992712 -56.812916 9.814896 -86.326238 87.330161 -91.656073 -11.216719 -21.693258 14.763882 0.013792 -0.108227 0.018560 9.130608 -53.133835 -6.067891 109.896256 77.349958 106.185277 -8.004271 -23.815424 2.606784 0.080662 0.171234 0.046272
-37.054947 55.254035 0.067579 -176.841337 -18.358860 -1.436541 0.380281 16.695616 0.092340 0.037444 1.702696 0.018793 0.062935 2.843777 0.032053 0.336601 14.718580 0.198424 0.015985 17.660030 0.489981 -0.087465 -7.157547 0.508837 0.295011 0.864908 1.941810 3.078528 -7.612334 -8.025835 -67.706526 -45.435994 105.536228 -21.622080 -4.092552 0.308222 -5.406322 -1.438034 2.864619 3.082564 -10.645650 6.669655 56.986237 -46.575387 -101.326463 11.734913 -18.294842 10.378678 0.983186 -56.804947 9.812804 -86.326370 87.341222 -91.660831 -11.158109 -21.706138 14.760108 0.001157 -0.106068 0.007512 9.124286 -53.128499 -6.062619 109.890088 77.346778 106.180688 -8.001808 -23.816382 2.606714 0.075067 0.171750 0.044232
-37.056727 55.254733 0.067470 -176.841303 -18.362872 -1.437754 0.372221 16.694593 0.086338 0.036827 1.702932 0.018660 0.061889 2.843904 0.031699 0.323448 14.719381 0.198651 -0.140916 17.768861 0.479952 -0.250022 -7.038178 0.534089 0.313106 0.871453 1.942609 2.984620 -7.606366 -7.973483 -67.250896 -44.249378 105.320060 -22.316061 -4.737754 0.476680 -5.386945 -1.405879 2.856326 3.136490 -10.594158 6.606861 56.459510 -45.722096 -101.037089 12.199397 -18.932608 10.070983 0.983209 -56.800023 9.808502 -86.320563 87.347098 -91.653671 -11.154268 -21.710400 14.759794 0.023831 -0.099665 0.008327 9.128014 -53.124088 -6.065286 109.884854 77.341791 106.178094 -8.009434 -23.816008 2.609294 0.074500 0.170661 0.042899
-37.057613 55.255520 0.067146 -176.845238 -18.367666 -1.443181 0.349075 16.687349 0.079307 0.048871 1.709295 0.020761 0.060123 2.844268 0.031503 0.309341 14.719522 0.197055 -0.265519 17.870872 0.465670 -0.384735 -6.927073 0.549715 0.318067 0.887395 1.948570 2.920296 -7.604475 -7.914782 -66.859040 -43.087666 105.140381 -23.011299 -5.494794 0.564095 -5.357987 -1.385906 2.849180 3.163900 -10.568981 6.573563 55.930691 -44.780022 -100.717412 12.708706 -19.616979 9.773112 0.978164 -56.794295 9.814512 -86.259536 87.355645 -91.590593 -11.160080 -21.711428 14.767794 0.026948 -0.094971 0.002167 9.128813 -53.121033 -6.062198 109.883164 77.335555 106.179922 -8.003477 -23.816377 2.609464 0.063722 0.169262 0.037938
-37.058386 55.256394 0.066648 -176.847175 -18.372538 -1.449345 0.346734 16.689063 0.083469 0.027818 1.700521 0.017085 0.070840 2.851320 0.033705 0.307814 14.720620 0.195686 -0.374819 17.964420 0.450313 -0.490305 -6.821737 0.556362 0.304386 0.904187 1.961234 2.862820 -7.601648 -7.846198 -66.526707 -41.968038 104.986672 -23.683574 -6.359859 0.560647 -5.346600 -1.340656 2.836282 3.231139 -10.516874 6.488339 55.402456 -43.860900 -100.433596 13.252692 -20.339037 9.492641 0.969349 -56.787263 9.822952 -86.204984 87.359533 -91.538512 -11.159977 -21.714579 14.780659 0.028320 -0.090317 -0.004512 9.132528 -53.117890 -6.061188 109.882541 77.333070 106.186361 -7.996757 -23.815321 2.607961 0.065391 0.164415 0.034065
-37.059486 55.256975 0.066923 -176.843365 -18.370993 -1.454060 0.338660 16.684488 0.084423 0.020834 1.698015 0.015185 0.069554 2.850741 0.034159 0.315887 14.725323 0.196394 -0.465101 18.048822 0.432571 -0.565071 -6.722188 0.553041 0.300410 0.909212 1.965911 2.776614 -7.591131 -7.752860 -66.245855 -40.899604 104.847999 -24.338166 -7.315171 0.473313 -5.344833 -1.295962 2.825820 3.299589 -10.470564 6.400664 54.872037 -42.886119 -100.158080 13.811036 -21.101203 9.232306 0.960087 -56.786780 9.832405 -86.126716 87.347758 -91.450661 -11.228256 -21.716558 14.806570 0.030591 -0.076301 -0.009367 9.135664 -53.119977 -6.064683 109.853691 77.329408 106.167434 -8.002180 -23.813047 2.604485 0.066162 0.164106 0.033953
-37.060963 55.257780 0.066435 -176.842297 -18.372373 -1.454728 0.324226 16.680067 0.077899 0.025718 1.700443 0.015433 0.062227 2.847411 0.034144 0.307787 14.724279 0.195596 -0.505854 18.132037 0.407273 -0.608066 -6.630901 0.538111 0.306663 0.928148 1.973781 2.690173 -7.589447 -7.655249 -66.009243 -39.883926 104.719433 -25.000411 -8.355188 0.319412 -5.322738 -1.270810 2.818079 3.360350 -10.415491 6.327812 54.347969 -41.848008 -99.887122 14.362795 -21.896198 8.989450 0.957858 -56.784031 9.837062 -86.100029 87.342934 -91.412000 -11.306978 -21.718546 14.828545 0.052162 -0.061462 -0.014487 9.139758 -53.117564 -6.071776 109.833035 77.326582 106.152848 -8.000282 -23.815292 2.601035 0.062543 0.166420 0.033441
